<svg width="80" height="80" viewBox="0 0 80 80" fill="none" xmlns="http://www.w3.org/2000/svg">
<g clip-path="url(#clip0_1743_8119)">
<path d="M61.6577 59.6535V66.5402L58.6144 64.7834L53.5589 61.8638L51.3814 53.9793L45.8309 71.1752L41.2535 68.5277L41.2123 68.305L41.1382 67.9009L34.7217 32.4618L34.6556 32.0989L34.6474 32.1401L32.0248 44.2391L25.0557 76.3875L20.4784 73.7483L12.1484 37.9545L1.64941 31.8927V25.006L16.5773 33.6246L22.2022 57.7895L28.3629 29.5421L28.8083 27.5133L29.6989 23.4308L32.2557 11.6948L37.0558 14.4659L41.2618 37.7814L44.1071 53.5669L45.9135 47.9999L48.9815 38.5648L53.2536 41.0308L56.2062 51.769L57.7566 57.402L61.6577 59.6535Z" fill="#490878" stroke="white" stroke-width="0.853569" stroke-linecap="round" stroke-linejoin="round"/>
<path d="M29.6989 23.431L28.8083 27.5135L26.6804 28.5774L16.5773 33.6249L1.64941 25.0062L18.1443 16.7588L29.6989 23.431Z" fill="#490878" stroke="white" stroke-width="0.853569" stroke-linecap="round" stroke-linejoin="round"/>
<path d="M28.8082 27.5132L28.3627 29.542L22.202 57.7894L16.5771 33.6245L26.6802 28.5771L28.8082 27.5132Z" fill="#490878" stroke="white" stroke-width="0.853569" stroke-linecap="round" stroke-linejoin="round"/>
<path d="M53.5507 6.2179L47.4888 9.24464V9.2529L37.0559 14.4653L32.2559 11.6942L48.7507 3.44678L53.5507 6.2179Z" fill="#490878" stroke="white" stroke-width="0.853569" stroke-linecap="round" stroke-linejoin="round"/>
<path d="M74.2518 49.1538L69.4765 51.5374L65.3363 53.6075V53.6157L57.757 57.4013L56.2066 51.7683L53.2539 41.0301L54.1777 40.5684L59.2829 38.0116L63.6951 35.8095L69.7488 32.7827L74.2518 49.1538Z" fill="#490878" stroke="white" stroke-width="0.853569" stroke-linecap="round" stroke-linejoin="round"/>
<path d="M69.749 32.7839L63.6953 35.8107L59.283 38.0127L54.1779 40.5695L53.2541 41.0313L48.9819 38.5653L53.4107 36.3467L58.524 33.7983L65.4768 30.3179L69.749 32.7839Z" fill="#490878" stroke="white" stroke-width="0.853569" stroke-linecap="round" stroke-linejoin="round"/>
<path d="M78.1527 51.4063L71.761 54.6063L63.7114 58.6228V58.6311L61.6579 59.6538L57.7568 57.4022L65.3361 53.6166V53.6084L69.4763 51.5383L74.2517 49.1548L78.1527 51.4063Z" fill="#490878" stroke="white" stroke-width="0.853569" stroke-linecap="round" stroke-linejoin="round"/>
<path d="M78.1526 51.4067V58.2934L61.6577 66.5408V59.6542L63.7113 58.6315V58.6232L71.7608 54.6067L78.1526 51.4067Z" fill="#490878" stroke="white" stroke-width="0.853569" stroke-linecap="round" stroke-linejoin="round"/>
<path d="M58.5231 33.7986L53.4097 36.347L48.9809 38.5656L45.9129 48.0007L44.1066 53.5677L41.2612 37.7822L37.0552 14.4666L47.4881 9.25423V9.24598L53.55 6.21924L58.5231 33.7986Z" fill="#490878" stroke="white" stroke-width="0.853569" stroke-linecap="round" stroke-linejoin="round"/>
<path d="M58.6146 64.7831L45.8311 71.1749L51.3816 53.979L53.559 61.8635L58.6146 64.7831Z" fill="#490878" stroke="white" stroke-width="0.853569" stroke-linecap="round" stroke-linejoin="round"/>
<path d="M41.2122 68.305L25.0557 76.3876L32.0247 44.2391L34.6473 32.1401L34.7216 32.4618L41.1381 67.901L41.2122 68.305Z" fill="#490878" stroke="white" stroke-width="0.853569" stroke-linecap="round" stroke-linejoin="round"/>
<path d="M46.6132 35.9858L41.8753 38.3513L41.3994 38.5927L35.9994 61.8272L33.0822 44.4479L30.296 27.8203L27.5649 11.5513L41.358 4.65479L46.6132 35.9858Z" fill="#490878" stroke="white" stroke-width="0.353201" stroke-linecap="round" stroke-linejoin="round"/>
<path d="M41.3578 4.65465L27.5647 11.5512L22.0957 8.39949L35.8888 1.50293L41.3578 4.65465Z" fill="#490878" stroke="white" stroke-width="0.353201" stroke-linecap="round" stroke-linejoin="round"/>
<path d="M65.7025 59.9863L61.1026 62.2896L53.6681 66V66.0069L51.9094 66.8828L46.9302 41.7862L47.5371 41.4828L53.6267 38.4414V38.4345L60.7233 34.8896L65.7025 59.9863Z" fill="#490878" stroke="white" stroke-width="0.353201" stroke-linecap="round" stroke-linejoin="round"/>
<path d="M60.7652 71.9932V78.3449L50.4134 72.3725L47.6203 70.7587L47.1376 68.3172L45.5996 60.4965L44.3032 53.9172L38.6271 78.2622L33.0963 75.0691L28.7238 49.0551L27.9651 44.5516L26.7858 37.5172L24.7928 25.6689L22.7515 35.193L21.5446 40.8413L18.71 54.062L5.42725 46.3999V40.0482L14.2825 45.1585L16.5513 34.4896V34.4827L22.0962 8.3999L27.5652 11.5516L30.2963 27.8206L33.0825 44.4482L35.9997 61.8275L41.3996 38.593L41.972 38.924L46.9307 41.7861L51.9099 66.8827L53.2823 67.6758L60.7652 71.9932Z" fill="#490878" stroke="white" stroke-width="0.353201" stroke-linecap="round" stroke-linejoin="round"/>
<path d="M50.4132 72.3724L38.627 78.262L44.303 53.917L45.5994 60.4963L47.1374 68.317L47.6201 70.7586L50.4132 72.3724Z" fill="#490878" stroke="white" stroke-width="0.353201" stroke-linecap="round" stroke-linejoin="round"/>
<path d="M74.558 65.0962L68.6615 68.0478L60.7649 71.9924L53.2821 67.6755L51.9097 66.8824L53.6684 66.0065V65.9996L61.1028 62.2893L65.7028 59.9858L74.558 65.0962Z" fill="#490878" stroke="white" stroke-width="0.353201" stroke-linecap="round" stroke-linejoin="round"/>
<path d="M60.7236 34.8899L53.6269 38.4347V38.4415L47.5374 41.483L46.9304 41.7864L41.9718 38.9243L41.3994 38.5933L41.8753 38.3519L46.6132 35.9864L55.1925 31.6968L60.7236 34.8899Z" fill="#490878" stroke="white" stroke-width="0.353201" stroke-linecap="round" stroke-linejoin="round"/>
<path d="M74.5577 65.0957V71.4477L60.7646 78.3443V71.9925L68.6612 68.0474L74.5577 65.0957Z" fill="#490878" stroke="white" stroke-width="0.353201" stroke-linecap="round" stroke-linejoin="round"/>
<path d="M28.7238 49.0547L18.71 54.0616L21.5445 40.8409L22.7514 35.1926L24.7927 25.6685L26.7858 37.5167L27.9651 44.5512L28.7238 49.0547Z" fill="#490878" stroke="white" stroke-width="0.353201" stroke-linecap="round" stroke-linejoin="round"/>
<path d="M16.5513 34.4897L14.2825 45.1587L5.42725 40.0484L16.5513 34.4897Z" fill="#490878" stroke="white" stroke-width="0.353201" stroke-linecap="round" stroke-linejoin="round"/>
</g>
<defs>
<clipPath id="clip0_1743_8119">
<rect width="80" height="80" fill="white"/>
</clipPath>
</defs>
</svg>
