<svg width="120" height="120" viewBox="0 0 120 120" fill="none" xmlns="http://www.w3.org/2000/svg">
<path d="M78.052 60.229C77.9894 59.6968 77.8953 59.1646 77.8014 58.6324C77.1857 55.095 76.1736 51.5263 74.7545 47.9368C73.5963 44.9629 72.1564 41.9577 70.4346 38.942C70.3198 38.7333 70.2049 38.5246 70.0797 38.3159C69.1093 36.6359 68.0972 35.0394 67.0537 33.5159C65.6242 31.429 64.1319 29.4777 62.5458 27.6724C58.9354 23.4881 54.9285 20.055 50.5668 17.3733C50.1911 17.1333 49.8154 16.9142 49.4397 16.695C46.998 15.2863 44.6606 14.2324 42.4484 13.5333C37.878 12.1142 33.7771 12.1977 30.1667 13.8046L28.7997 14.4829C23.1649 17.6968 20.3477 23.9681 20.3477 33.2863C20.3477 37.5229 20.984 41.895 22.257 46.382C23.5301 50.8794 25.3146 55.2516 27.6207 59.4985V91.742L49.4397 95.989L71.259 116.932V84.6985C73.5651 83.102 75.3493 80.7959 76.6223 77.7803C77.8119 74.9524 78.4485 71.5924 78.5111 67.7003C78.532 67.429 78.532 67.1576 78.532 66.8759C78.532 64.6742 78.3755 62.4516 78.052 60.229ZM71.2485 63.6307C71.2277 64.1524 71.2067 64.6637 71.1545 65.1542C70.7058 70.7681 68.6189 74.629 64.8936 76.7472C60.6571 79.1577 55.5023 78.6255 49.4397 75.1194C49.1163 74.9316 48.8033 74.7437 48.4903 74.5455C42.8346 71.0498 38.0031 65.822 33.9857 58.8933C29.7388 51.5785 27.6207 44.4411 27.6207 37.4811C27.6207 30.5211 29.7388 25.8359 33.9857 23.4255C36.1561 22.1837 38.5772 21.7246 41.2277 22.0377C43.5024 22.309 45.9544 23.1542 48.5944 24.5733C48.8761 24.7194 49.158 24.8759 49.4397 25.0429C51.2345 26.0759 52.9459 27.2759 54.5737 28.6533C55.3146 29.2585 56.0241 29.9055 56.7232 30.5837C59.6971 33.4742 62.3683 36.9594 64.7579 41.0394C64.7996 41.1124 64.8519 41.1959 64.8936 41.269C64.9563 41.3837 65.0293 41.4985 65.0919 41.6133C66.3754 43.8463 67.4503 46.069 68.3268 48.2707C68.6607 49.0846 68.9527 49.8985 69.224 50.7124C70.5805 54.7507 71.259 58.7472 71.259 62.6811C71.259 63.0046 71.259 63.3176 71.2485 63.6307Z" fill="#490878" stroke="white" stroke-linecap="round" stroke-linejoin="round"/>
<path d="M71.2591 62.6811C71.2591 63.0046 71.2591 63.3176 71.2487 63.6307L69.7773 64.3611L57.8086 70.3507L54.626 56.6185L59.3216 55.0428L63.0783 53.7802L69.2241 50.7124C70.5807 54.7507 71.2591 58.7472 71.2591 62.6811Z" fill="#490878" stroke="white" stroke-linecap="round" stroke-linejoin="round"/>
<path d="M71.1549 65.1545C70.7062 70.7684 68.6193 74.6293 64.8941 76.7475C60.6575 79.158 55.5028 78.6258 49.4402 75.1197C49.1167 74.9319 48.8037 74.744 48.4907 74.5458C42.835 71.0501 38.0035 65.8223 33.9861 58.8936C29.7392 51.5788 27.6211 44.4414 27.6211 37.4814C27.6211 30.5214 29.7392 25.8363 33.9861 23.4259C36.1566 22.1841 38.5776 21.7249 41.2281 22.038C43.5029 22.3093 45.9548 23.1545 48.5948 24.5736C48.5218 25.3667 48.4907 26.191 48.4907 27.0467C48.4907 28.5388 48.5846 30.0311 48.7829 31.5441L42.7516 34.5597L35.8018 38.0346L44.1705 50.5876L40.9881 60.6466L48.4907 58.3927L49.4402 58.111L57.8088 70.351L69.7775 64.3614C69.9549 64.4762 70.1323 64.5806 70.3097 64.6849C70.5915 64.8519 70.8732 65.0084 71.1549 65.1545Z" fill="#490878" stroke="white" stroke-linecap="round" stroke-linejoin="round"/>
<path d="M59.3219 55.043L54.6262 56.6186L57.8088 70.3508L49.4401 58.1108L48.4907 58.3925L40.9881 60.6465L44.1705 50.5873L35.8018 38.0343L45.9757 43.9195L46.1637 44.0238L49.315 34.5908L49.4401 34.2256L50.7549 39.6621L52.7168 47.8012L55.3774 49.3351L63.0785 53.7804L59.3219 55.043Z" fill="#490878" stroke="white" stroke-linecap="round" stroke-linejoin="round"/>
<path d="M65.0916 41.6135L64.4761 41.9162L54.0933 47.1127L52.7161 47.8014L50.7542 39.6622L49.4395 34.2257L56.7229 30.584C59.6968 33.4744 62.368 36.9596 64.7576 41.0396C64.7993 41.1127 64.8516 41.1962 64.8934 41.2692C64.956 41.384 65.029 41.4988 65.0916 41.6135Z" fill="#490878" stroke="white" stroke-linecap="round" stroke-linejoin="round"/>
<path d="M69.2244 50.7124L63.0785 53.7802L55.3775 49.335L52.7168 47.8011L54.094 47.1124L64.4768 41.9263L65.0923 41.6133C66.3758 43.8463 67.4507 46.0689 68.3272 48.2707C68.6611 49.0846 68.9531 49.8985 69.2244 50.7124Z" fill="#490878" stroke="white" stroke-linecap="round" stroke-linejoin="round"/>
<path d="M56.7236 30.5838L49.4401 34.2255L49.315 34.5907L46.1637 44.0238L45.9757 43.9194L35.8018 38.0342L42.7515 34.5594L48.7828 31.5438L54.5741 28.6533C55.315 29.2585 56.0245 29.9055 56.7236 30.5838Z" fill="#490878" stroke="white" stroke-linecap="round" stroke-linejoin="round"/>
<path d="M92.1284 74.2642V106.498L71.2588 116.932V84.6989L92.1284 74.2642Z" fill="#490878" stroke="white" stroke-linecap="round" stroke-linejoin="round"/>
<path d="M51.0787 3.34912L49.6699 4.04826C50.1291 3.78739 50.5987 3.54738 51.0787 3.34912Z" fill="#490878" stroke="white" stroke-linecap="round" stroke-linejoin="round"/>
<path d="M99.4019 56.4413C99.4019 60.6882 98.7653 64.3195 97.4922 67.3456C96.2192 70.3613 94.4349 72.6674 92.1288 74.2639L71.2593 84.6987C73.5654 83.1022 75.3496 80.7961 76.6226 77.7804C77.8122 74.9526 78.4488 71.5926 78.5114 67.7004C78.5323 67.4291 78.5323 67.1578 78.5323 66.8761C78.5323 64.6743 78.3758 62.4517 78.0523 60.2291C77.9897 59.6969 77.8956 59.1648 77.8017 58.6326C77.186 55.0952 76.1739 51.5265 74.7548 47.9369C73.5966 44.963 72.1567 41.9578 70.4349 38.9422C70.3201 38.7335 70.2053 38.5248 70.08 38.3161C69.1096 36.6361 68.0975 35.0395 67.0541 33.5161C65.6245 31.4291 64.1322 29.4778 62.5461 27.6726C58.9357 23.4882 54.9288 20.0552 50.5671 17.3735C50.1914 17.1335 49.8157 16.9143 49.44 16.6952C46.9983 15.2865 44.6609 14.2326 42.4487 13.5335C37.8783 12.1143 33.7774 12.1978 30.167 13.8048L49.6278 4.07957L49.6696 4.04827L51.0784 3.34913L51.1827 3.29696C56.5149 0.990874 62.9009 1.98218 70.3096 6.26044C78.4279 10.9456 85.3148 18.1561 90.9496 27.8813C96.5844 37.6065 99.4019 47.123 99.4019 56.4413Z" fill="#490878" stroke="white" stroke-linecap="round" stroke-linejoin="round"/>
</svg>
